<svg xmlns="http://www.w3.org/2000/svg" viewBox="0 0 942.44 1565.16" class="unicorn-svg s-to-center"><g id="Capa_2" data-name="Capa 2"><g id="Capa_1-2" data-name="Capa 1"><g id="unicorn-ufo"><g id="unicorn" class="unicorn-ufo"><path d="M511.24,1274.19a28.21,28.21,0,0,1,40.49,8c3,4.79,8.35,5.12,13.49,3.67a5.27,5.27,0,0,1,6,7.64c-7.5,13.86-19.24,21.71-28.63,27.52a28.2,28.2,0,0,1-31.35-46.85Z" fill="#0083d7"></path><path d="M549,1355.16a12,12,0,0,1-10.63,1c-18.33-7-38.25-30-38.75-44.91a12.06,12.06,0,0,1,24.08-1.19c.38,1.47,2.73,6.18,7.77,11.82s10.67,9.92,15.46,11.74a12.06,12.06,0,0,1,2.07,21.52Zm-25.28-44.71h0Z" fill="#f9f1da"></path><path d="M542.94,1331.67l-11.5,21.18a48.18,48.18,0,0,0,6.94,3.33,12.06,12.06,0,0,0,8.56-22.54A25.44,25.44,0,0,1,542.94,1331.67Z" fill="#495059"></path><path d="M477.12,1387.06a12.06,12.06,0,0,1-15.8-2.81c-11.16-14.16-9.53-41.67,3.41-57.71a12.06,12.06,0,0,1,18.77,15.14c-6.53,8.09-6.78,23.16-3.24,27.66a12.06,12.06,0,0,1-2,16.93C477.88,1386.55,477.51,1386.82,477.12,1387.06Z" fill="#f9f1da"></path><path d="M456.8,1376.14a31,31,0,0,0,4.52,8.11,12.06,12.06,0,0,0,15.8,2.81c.39-.24.76-.51,1.13-.79a12.06,12.06,0,0,0,2-16.93,9.29,9.29,0,0,1-1.43-3Z" fill="#495059"></path><path d="M402.63,1123.29c29.28-18.13,60.77-9.81,76.12,15a48.83,48.83,0,0,1,2.86,5.32,11.74,11.74,0,0,0,8.56,6.54c11,2.09,20.54,8,26.33,17.31,6.92,11.18,18.17,18.72,29.48,16.62a6.49,6.49,0,0,1,7.35,8.19c-8.44,29.6-70.3,88.83-120.5,56.67,0,0-25-9.25-50.73-50.83C366.75,1173.3,369.53,1143.78,402.63,1123.29Z" fill="#0083d7"></path><path d="M371.17,1191.36c12.06,6.48,11.36,14.77,6.91,23.05s-11,13.45-23,7-24.29-21.7-19.83-30S359.11,1184.89,371.17,1191.36Z" fill="#f0e4c0"></path><path d="M418.18,1366a12.07,12.07,0,0,1-18.36-9.36c-1.37-18.35,5.25-36.67,18.65-51.6a12.06,12.06,0,0,1,17.95,16.11c-5.2,5.79-13.74,17.86-12.56,33.69A12.05,12.05,0,0,1,418.18,1366Z" fill="#f5ebcd"></path><path d="M399.83,1347.22a63,63,0,0,0,0,9.42,12.05,12.05,0,1,0,24-1.8,40.41,40.41,0,0,1,0-6.33Z" fill="#495059"></path><path d="M418.15,1323.46c15.64,25.28,44.62,35.69,80.85,13.26s39.83-53,24.19-78.28-51.85-31.22-80.86-13.27S402.5,1298.18,418.15,1323.46Z" fill="#f9f1da"></path><path d="M499,1336.72c-10.63,6.58-20.63,10.31-29.86,11.7,68.06-48,12.15-105.58-23.07-105.41,28.31-15.25,62.13-8.78,77.12,15.43C538.83,1283.72,535.23,1314.29,499,1336.72Z" fill="#f0e4c0"></path><path d="M316.64,1257.71c7.59-32.23,40.36-68.71,85.72-96.78a63.23,63.23,0,0,1,66.56,107.53c-32.81,20.3-78.28,56.39-116.25,47.46A48.42,48.42,0,0,1,316.64,1257.71Z" fill="#f9f1da"></path><path d="M437.08,1151.48a63.23,63.23,0,0,1,31.83,117c-22.11,13.7-50,34.56-77.44,44C515.25,1247.33,472.91,1175.16,437.08,1151.48Z" fill="#f5ebcd"></path><path d="M385.32,1299.56a17.48,17.48,0,0,0-11.93,7.39,7.48,7.48,0,0,1-13-1.13l-4.57-9.94a16.21,16.21,0,0,1,27.36-16.94l6.87,8.52A7.48,7.48,0,0,1,385.32,1299.56Z" fill="#495059"></path><path d="M377.17,1207.08a31.8,31.8,0,0,0,21.95-27.84,10.64,10.64,0,0,0-5.75-10.26l-54.68-28a10.55,10.55,0,0,0-12.82,16.26l40,46.63A10.64,10.64,0,0,0,377.17,1207.08Z" fill="#00d6ff"></path><path d="M325.6,1143.86a10.55,10.55,0,0,1,13.09-2.86l23.25,11.9c-6.16,4.92-15.23,9.92-28.88,12.74l-7.19-8.38A10.55,10.55,0,0,1,325.6,1143.86Z" fill="#ff6862"></path><path d="M365.85,1203.89l-13.23-15.44c23.14-3,35.19-11.84,41.86-18.81a10.62,10.62,0,0,1,4.64,9.6,31.8,31.8,0,0,1-21.95,27.84A10.64,10.64,0,0,1,365.85,1203.89Z" fill="#0083d7"></path><path d="M426.22,1157.28c.42,13.69,8.15,16.76,17.56,16.47s16.92-3.83,16.51-17.51-8.6-31.42-18-31.13S425.8,1143.6,426.22,1157.28Z" fill="#f0e4c0"></path><path d="M557.54,1277.66a12,12,0,0,1-10.13,1.2c-8.33-2.74-21-6.26-34.93-5.1a12.06,12.06,0,0,1-2-24c18.3-1.53,34.15,2.82,44.49,6.23a12.06,12.06,0,0,1,2.58,21.7Z" fill="#f9f1da"></path><path d="M374.38,1233.92l-17.18,10.64,11.05,17.85a10.1,10.1,0,1,0,17.3-10.44Z" fill="#afdaee"></path><path d="M438.71,1194.1l-17.17,10.64,12.69,20.5a10.1,10.1,0,1,0,17.3-10.44l-12.81-20.7Z" fill="#afdaee"></path><path d="M375.12,1222.24a16.69,16.69,0,1,1-23-5.41A16.68,16.68,0,0,1,375.12,1222.24Z" fill="#fff"></path><path d="M439.35,1182.48a16.69,16.69,0,1,1-23-5.41A16.68,16.68,0,0,1,439.35,1182.48Z" fill="#fff"></path><path d="M409.14,1168.37l-12.56-20.29a4.41,4.41,0,0,1,1.08-5.91,4.3,4.3,0,0,1,6.14,1.24L416.53,1164a4.3,4.3,0,0,1-1.62,6.06A4.41,4.41,0,0,1,409.14,1168.37Z" fill="#afdaee"></path><path d="M425.22,1158.41l-12.56-20.29a4.41,4.41,0,0,1,1.09-5.91,4.3,4.3,0,0,1,6.14,1.25L432.62,1154a4.3,4.3,0,0,1-1.62,6A4.41,4.41,0,0,1,425.22,1158.41Z" fill="#afdaee"></path><path d="M441.3,1148.45l-12.55-20.28a4.41,4.41,0,0,1,1.08-5.91,4.29,4.29,0,0,1,6.14,1.24l12.73,20.57a4.29,4.29,0,0,1-1.62,6A4.41,4.41,0,0,1,441.3,1148.45Z" fill="#afdaee"></path><path d="M574.12,1244.68a4.25,4.25,0,0,1-1,.47l-9.59,2.84a4.28,4.28,0,0,1-4.94-2l-4.79-8.35L549,1240.6a4.37,4.37,0,0,1-6-1.43l-4.69-7.58a4.41,4.41,0,0,1,1.08-5.91,4.3,4.3,0,0,1,6.14,1.24l2.57,4.16,5-3a4.32,4.32,0,0,1,3.31-.49,4.27,4.27,0,0,1,2.66,2l5.29,9.23,6.32-1.88a4.3,4.3,0,0,1,3.49,7.77Z" fill="#afdaee"></path><path d="M439,1404.32a4.3,4.3,0,0,1-6-5.83l5.06-8.62-11.31-5.43a4.29,4.29,0,0,1-.6-7.4l9.78-6.83-3.23-5.21a4.41,4.41,0,0,1,1.08-5.91,4.31,4.31,0,0,1,6.15,1.24l5.45,8.82a4.3,4.3,0,0,1-1.19,5.78l-7.08,4.94,8.89,4.26a4.32,4.32,0,0,1,1.85,6.06l-7.44,12.66A4.31,4.31,0,0,1,439,1404.32Z" fill="#afdaee"></path><path d="M380.48,1346.47a4.37,4.37,0,0,1-4.92-.22l-8.15-6.1-5.23,7.26a4.36,4.36,0,0,1-6.83.31l-5.24-6-4.38,4.14a4.36,4.36,0,1,1-6-6.34l7.69-7.26a4.35,4.35,0,0,1,6.29.31l4.6,5.3,4.6-6.39a4.36,4.36,0,0,1,6.16-1l11.71,8.77a4.35,4.35,0,0,1,.88,6.1A4.42,4.42,0,0,1,380.48,1346.47Z" fill="#afdaee"></path><path d="M555,1256c-2.16-.71-4.59-1.47-7.21-2.2l-5.2,23.59c1.75.51,3.38,1,4.86,1.51A12.06,12.06,0,1,0,555,1256Z" fill="#495059"></path></g><polygon id="light" points="775.17 1519.16 115.96 1511.37 373.38 661.82 583.63 682.87 775.17 1519.16" fill="#ffe650" opacity="0.24"></polygon><ellipse cx="444.16" cy="1512.66" rx="330" ry="52.5" fill="#fff29f"></ellipse><g id="ufo"><path d="M189.61,364.35a22.22,22.22,0,0,1,16.83-2.86c135.3,31.09,394.31,31.07,529.55,0a22.22,22.22,0,0,1,16.83,2.86c-30.35-76.51-77.69-139.17-135.31-179a12.35,12.35,0,0,1-3,.9c-90.44,14.35-196.1,14.36-286.55,0a12.35,12.35,0,0,1-3-.9C267.3,225.19,220,287.84,189.61,364.35Z" fill="#4ac4f4"></path><path d="M623.46,378.24c42.2-3.87,80.78-9.45,112.53-16.75a22.22,22.22,0,0,1,16.83,2.86c-30.35-76.51-77.69-139.17-135.31-179a12.35,12.35,0,0,1-3,.9c-23.34,3.7-47.69,6.44-72.53,8.24.2.66.41,1.3.6,2,0,0,79.33,64.17,77.07,180.13A31,31,0,0,1,623.46,378.24Z" fill="#3eb6f1"></path><path d="M327.94,188.25c90.45,14.35,196.11,14.35,286.55,0,10.82-1.72,14.17-15.7,5.21-22-44.33-31.26-94.85-48.95-148.48-49s-104.16,17.7-148.49,49C313.77,172.55,317.12,186.53,327.94,188.25Z" fill="#d0e8fe"></path><path d="M471.22,117.27v15.1s57.65,13,71.33,64.07c24.64-1.8,48.79-4.52,71.94-8.2,10.82-1.71,14.17-15.69,5.21-22C575.37,135,524.85,117.28,471.22,117.27Z" fill="#a9d8fc"></path><path d="M456.12,117.28V41a15.1,15.1,0,1,1,30.19,0v76.27a15.1,15.1,0,0,1-30.19,0Z" fill="#91d1f9"></path><path d="M434.57,36.77A36.77,36.77,0,1,0,471.34,0,36.77,36.77,0,0,0,434.57,36.77Z" fill="#eb5793"></path><path d="M444.38,11.81a36.74,36.74,0,1,0,37.79-10.2,22.3,22.3,0,1,1-37.79,10.2Z" fill="#e7387f"></path><path d="M162.69,410.44c204.55,36.13,423.41,34.21,617.05,0L761.11,371.6A22.34,22.34,0,0,0,736,359.47c-135.24,31.08-394.25,31.1-529.54,0a22.34,22.34,0,0,0-25.13,12.13Z" fill="#d0e8fe"></path><path d="M641.11,429c47.23-4.38,93.62-10.57,138.63-18.52L761.11,371.6A22.34,22.34,0,0,0,736,359.47c-32.71,7.52-72.67,13.21-116.36,17.1C619.63,376.57,655,388.23,641.11,429Z" fill="#a9d8fc"></path><path d="M194,631.46c79.25,70.19,174.32,111.07,276.55,111.07s197.31-40.89,276.56-111.07C571,657,370.15,657,194,631.46Z" fill="#8c96dd"></path><path d="M496.93,741.59c92.2-6.37,177.8-46,250.2-110.13-82,11.88-169.24,18.22-256.87,19h1.84C550.71,649.9,554.74,736.78,496.93,741.59Z" fill="#5766ce"></path><path d="M51.94,560.59l16.53,21.33a114.45,114.45,0,0,0,69.95,42.5c206.7,37.62,457.53,37.63,664.3,0a114.45,114.45,0,0,0,69.95-42.51l16.54-21.33C636.92,618,304.4,618,51.94,560.59Z" fill="#d0e8fe"></path><path d="M771.22,582.46s12.25,25.12-26.85,51.43q29.67-4.26,58.35-9.46a114.45,114.45,0,0,0,69.95-42.51l16.54-21.33C851.49,569.16,812,576.45,771.22,582.46Z" fill="#a9d8fc"></path><path d="M15.62,554c269.86,69.79,644.62,68.94,911.19,0,17.26-4.47,21.31-27.1,6.65-37.23L779.74,410.44c-204.55,36.13-423.41,34.21-617,0L9,516.79C-5.68,526.93-1.63,549.56,15.62,554Z" fill="#a9d8fc"></path><path d="M771.55,584.68c54.38-8,106.46-18.29,155-30.83,17.25-4.46,21.3-27.1,6.65-37.23L779.44,410.26c-45.65,8.06-92,14.23-138.65,18.56h0S678.24,530.81,771.55,584.68Z" fill="#4ac4f4"></path></g><ellipse id="shadow" class="unicorn-ufo-shadow" cx="443.66" cy="1512.16" rx="128.5" ry="15" fill="#121920"></ellipse></g></g></g></svg>